<svg width="1624" height="432" viewBox="0 0 1624 432" fill="none" xmlns="http://www.w3.org/2000/svg">
<path fill-rule="evenodd" clip-rule="evenodd" d="M170.69 0.00634766V170.692H142.242V31.0401H28.4515L28.4659 170.69L0.0177753 170.694L0.000220991 0.00634766H170.69Z" fill="white"/>
<path fill-rule="evenodd" clip-rule="evenodd" d="M261.305 170.688V0.00168717H289.753V139.654H403.544L403.53 0.00342979L431.978 -5.54506e-05L431.995 170.688H261.305Z" fill="white"/>
<path fill-rule="evenodd" clip-rule="evenodd" d="M170.69 261.31H0.00196147V289.758H139.656V403.547L0.00370412 403.532L0.000218823 431.98L170.69 431.998V261.31Z" fill="white"/>
<path fill-rule="evenodd" clip-rule="evenodd" d="M261.305 261.31H431.994V289.758H292.339V403.547L431.992 403.532L431.995 431.98L261.305 431.998V261.31Z" fill="white"/>
<path d="M1559.82 200.003H1619.98C1618.77 219.722 1613.34 237.227 1603.68 252.519C1594.16 267.811 1580.81 279.749 1563.64 288.334C1546.61 296.919 1526.08 301.212 1502.07 301.212C1483.29 301.212 1466.46 297.992 1451.57 291.553C1436.68 284.981 1423.94 275.591 1413.34 263.384C1402.88 251.177 1394.89 236.422 1389.39 219.118C1383.89 201.814 1381.14 182.431 1381.14 160.969V140.646C1381.14 119.184 1383.96 99.8009 1389.6 82.4969C1395.36 65.0587 1403.55 50.2363 1414.14 38.0296C1424.87 25.8229 1437.68 16.4331 1452.57 9.86024C1467.46 3.2874 1484.1 0.000976562 1502.47 0.000976562C1526.89 0.000976562 1547.48 4.42758 1564.25 13.2808C1581.15 22.134 1594.23 34.3407 1603.48 49.9009C1612.87 65.4611 1618.5 83.1675 1620.38 103.02H1560.02C1559.35 91.2159 1557 81.2225 1552.98 73.04C1548.95 64.7233 1542.85 58.4859 1534.67 54.3275C1526.62 50.0351 1515.89 47.8888 1502.47 47.8888C1492.41 47.8888 1483.63 49.7668 1476.12 53.5227C1468.6 57.2786 1462.3 62.9795 1457.2 70.6255C1452.1 78.2715 1448.28 87.9295 1445.73 99.5997C1443.32 111.136 1442.11 124.684 1442.11 140.244V160.969C1442.11 176.126 1443.25 189.473 1445.53 201.009C1447.81 212.411 1451.3 222.069 1455.99 229.983C1460.82 237.763 1466.99 243.666 1474.51 247.69C1482.15 251.58 1491.34 253.525 1502.07 253.525C1514.68 253.525 1525.08 251.513 1533.26 247.489C1541.44 243.464 1547.68 237.495 1551.97 229.581C1556.4 221.667 1559.01 211.807 1559.82 200.003Z" fill="white"/>
<path d="M1211.93 297.188H1148.14L1148.55 250.105H1211.93C1227.76 250.105 1241.1 246.551 1251.97 239.441C1262.83 232.198 1271.02 221.668 1276.52 207.851C1282.15 194.035 1284.97 177.335 1284.97 157.75V143.464C1284.97 128.441 1283.36 115.228 1280.14 103.826C1277.05 92.4243 1272.42 82.8334 1266.25 75.0533C1260.08 67.2732 1252.5 61.4381 1243.52 57.548C1234.53 53.5239 1224.2 51.5118 1212.53 51.5118H1146.94V4.22754H1212.53C1232.12 4.22754 1250.02 7.58103 1266.25 14.288C1282.62 20.8609 1296.77 30.3177 1308.71 42.6585C1320.65 54.9994 1329.84 69.7547 1336.27 86.9246C1342.85 103.96 1346.13 122.941 1346.13 143.867V157.75C1346.13 178.542 1342.85 197.523 1336.27 214.693C1329.84 231.862 1320.65 246.618 1308.71 258.959C1296.9 271.165 1282.75 280.622 1266.25 287.329C1249.89 293.902 1231.78 297.188 1211.93 297.188ZM1182.35 4.22754V297.188H1121.99V4.22754H1182.35Z" fill="white"/>
<path d="M1012.13 4.22754H1072.29V197.791C1072.29 220.326 1067.46 239.307 1057.8 254.733C1048.28 270.159 1035.07 281.762 1018.16 289.543C1001.4 297.323 982.08 301.213 960.215 301.213C938.351 301.213 918.9 297.323 901.865 289.543C884.963 281.762 871.683 270.159 862.025 254.733C852.501 239.307 847.739 220.326 847.739 197.791V4.22754H908.102V197.791C908.102 210.937 910.181 221.668 914.34 229.985C918.498 238.301 924.467 244.405 932.247 248.295C940.161 252.185 949.484 254.13 960.215 254.13C971.215 254.13 980.537 252.185 988.183 248.295C995.964 244.405 1001.87 238.301 1005.89 229.985C1010.05 221.668 1012.13 210.937 1012.13 197.791V4.22754Z" fill="white"/>
<path d="M696.228 54.3287L616.549 297.188H552.363L661.218 4.22754H702.063L696.228 54.3287ZM762.426 297.188L682.546 54.3287L676.107 4.22754H717.355L826.813 297.188H762.426ZM758.804 188.133V235.417H604.074V188.133H758.804Z" fill="white"/>
<path d="M1609.93 418.185C1607.56 418.185 1605.38 417.749 1603.39 416.877C1601.42 416.005 1599.7 414.776 1598.23 413.189C1596.77 411.601 1595.64 409.723 1594.84 407.555C1594.06 405.364 1593.67 402.972 1593.67 400.378V398.936C1593.67 396.142 1594.08 393.615 1594.91 391.357C1595.73 389.099 1596.87 387.165 1598.33 385.556C1599.78 383.946 1601.43 382.716 1603.29 381.867C1605.17 380.995 1607.14 380.559 1609.19 380.559C1611.5 380.559 1613.54 380.973 1615.33 381.8C1617.12 382.605 1618.62 383.756 1619.82 385.254C1621.05 386.73 1621.98 388.484 1622.61 390.519C1623.23 392.531 1623.55 394.756 1623.55 397.192V399.64H1596.08V396.22H1619.55V395.75C1619.51 393.716 1619.1 391.816 1618.31 390.049C1617.55 388.261 1616.41 386.808 1614.89 385.69C1613.37 384.572 1611.47 384.013 1609.19 384.013C1607.49 384.013 1605.93 384.371 1604.5 385.086C1603.09 385.802 1601.87 386.83 1600.84 388.172C1599.84 389.491 1599.05 391.067 1598.5 392.9C1597.96 394.711 1597.69 396.723 1597.69 398.936V400.378C1597.69 402.39 1597.98 404.268 1598.56 406.012C1599.17 407.734 1600.02 409.254 1601.11 410.573C1602.23 411.892 1603.55 412.92 1605.07 413.658C1606.59 414.396 1608.26 414.765 1610.1 414.765C1612.24 414.765 1614.14 414.373 1615.8 413.591C1617.45 412.786 1618.94 411.523 1620.26 409.802L1622.77 411.747C1621.99 412.909 1621.01 413.982 1619.82 414.966C1618.66 415.95 1617.26 416.732 1615.63 417.313C1614 417.895 1612.1 418.185 1609.93 418.185Z" fill="white"/>
<path d="M1573.77 410.472V366.004H1577.79V417.514H1574.04L1573.77 410.472ZM1548.58 399.741V399.036C1548.58 396.219 1548.91 393.682 1549.56 391.424C1550.2 389.143 1551.13 387.198 1552.34 385.589C1553.57 383.957 1555.05 382.716 1556.77 381.866C1558.49 380.994 1560.43 380.559 1562.6 380.559C1564.73 380.559 1566.6 380.905 1568.24 381.598C1569.87 382.291 1571.26 383.286 1572.43 384.583C1573.61 385.879 1574.56 387.422 1575.28 389.211C1576.02 390.999 1576.55 392.989 1576.89 395.18V404.134C1576.62 406.19 1576.13 408.08 1575.41 409.801C1574.7 411.5 1573.75 412.987 1572.56 414.261C1571.38 415.513 1569.95 416.486 1568.27 417.179C1566.61 417.849 1564.7 418.185 1562.53 418.185C1560.39 418.185 1558.45 417.738 1556.73 416.843C1555.01 415.949 1553.55 414.686 1552.34 413.054C1551.13 411.399 1550.2 409.443 1549.56 407.185C1548.91 404.927 1548.58 402.446 1548.58 399.741ZM1552.61 399.036V399.741C1552.61 401.864 1552.82 403.832 1553.25 405.643C1553.67 407.454 1554.32 409.03 1555.19 410.371C1556.06 411.712 1557.17 412.763 1558.51 413.523C1559.85 414.283 1561.44 414.664 1563.27 414.664C1565.58 414.664 1567.51 414.228 1569.07 413.356C1570.64 412.461 1571.89 411.288 1572.83 409.835C1573.77 408.359 1574.45 406.749 1574.88 405.005V394.576C1574.61 393.391 1574.22 392.184 1573.7 390.954C1573.19 389.725 1572.48 388.596 1571.59 387.567C1570.72 386.517 1569.6 385.678 1568.24 385.052C1566.89 384.404 1565.26 384.08 1563.34 384.08C1561.48 384.08 1559.89 384.46 1558.54 385.22C1557.2 385.98 1556.08 387.042 1555.19 388.406C1554.32 389.747 1553.67 391.323 1553.25 393.134C1552.82 394.945 1552.61 396.912 1552.61 399.036Z" fill="white"/>
<path d="M1501.93 399.942V398.836C1501.93 396.198 1502.31 393.761 1503.07 391.525C1503.83 389.289 1504.91 387.355 1506.32 385.723C1507.75 384.091 1509.46 382.828 1511.45 381.934C1513.44 381.017 1515.66 380.559 1518.09 380.559C1520.55 380.559 1522.78 381.017 1524.77 381.934C1526.76 382.828 1528.47 384.091 1529.9 385.723C1531.33 387.355 1532.42 389.289 1533.18 391.525C1533.94 393.761 1534.32 396.198 1534.32 398.836V399.942C1534.32 402.58 1533.94 405.017 1533.18 407.253C1532.42 409.466 1531.33 411.389 1529.9 413.021C1528.49 414.653 1526.79 415.927 1524.8 416.844C1522.81 417.738 1520.6 418.185 1518.16 418.185C1515.7 418.185 1513.48 417.738 1511.49 416.844C1509.5 415.927 1507.79 414.653 1506.36 413.021C1504.92 411.389 1503.83 409.466 1503.07 407.253C1502.31 405.017 1501.93 402.58 1501.93 399.942ZM1505.92 398.836V399.942C1505.92 401.932 1506.19 403.821 1506.72 405.61C1507.26 407.376 1508.04 408.952 1509.07 410.338C1510.1 411.702 1511.37 412.775 1512.89 413.557C1514.41 414.34 1516.17 414.731 1518.16 414.731C1520.13 414.731 1521.86 414.34 1523.36 413.557C1524.88 412.775 1526.15 411.702 1527.18 410.338C1528.21 408.952 1528.98 407.376 1529.49 405.61C1530.03 403.821 1530.3 401.932 1530.3 399.942V398.836C1530.3 396.868 1530.03 395.001 1529.49 393.235C1528.98 391.469 1528.2 389.893 1527.15 388.507C1526.12 387.121 1524.84 386.025 1523.32 385.22C1521.8 384.416 1520.06 384.013 1518.09 384.013C1516.13 384.013 1514.38 384.416 1512.86 385.22C1511.36 386.025 1510.09 387.121 1509.04 388.507C1508.01 389.893 1507.23 391.469 1506.69 393.235C1506.18 395.001 1505.92 396.868 1505.92 398.836Z" fill="white"/>
<path d="M1483.34 402.289H1487.47C1487.13 405.575 1486.23 408.414 1484.75 410.807C1483.27 413.176 1481.26 414.999 1478.71 416.273C1476.17 417.547 1473.09 418.184 1469.49 418.184C1466.72 418.184 1464.2 417.659 1461.95 416.608C1459.71 415.557 1457.79 414.071 1456.18 412.148C1454.57 410.203 1453.33 407.878 1452.46 405.173C1451.58 402.468 1451.15 399.461 1451.15 396.152V390.049C1451.15 386.74 1451.58 383.744 1452.46 381.061C1453.33 378.356 1454.58 376.031 1456.21 374.086C1457.84 372.141 1459.8 370.643 1462.08 369.592C1464.36 368.541 1466.93 368.016 1469.79 368.016C1473.26 368.016 1476.25 368.653 1478.78 369.928C1481.31 371.18 1483.3 372.99 1484.75 375.36C1486.23 377.73 1487.13 380.592 1487.47 383.945H1483.34C1483.03 381.307 1482.34 379.071 1481.26 377.238C1480.19 375.405 1478.7 374.008 1476.8 373.046C1474.92 372.063 1472.59 371.571 1469.79 371.571C1467.51 371.571 1465.48 372.007 1463.69 372.879C1461.9 373.751 1460.38 375.003 1459.13 376.635C1457.88 378.244 1456.92 380.178 1456.25 382.436C1455.6 384.694 1455.27 387.209 1455.27 389.981V396.152C1455.27 398.835 1455.59 401.305 1456.21 403.563C1456.84 405.821 1457.75 407.777 1458.96 409.432C1460.19 411.086 1461.69 412.372 1463.46 413.288C1465.22 414.205 1467.23 414.663 1469.49 414.663C1472.38 414.663 1474.78 414.205 1476.7 413.288C1478.65 412.349 1480.16 410.963 1481.23 409.13C1482.3 407.297 1483.01 405.016 1483.34 402.289Z" fill="white"/>
<path d="M1385.67 391.19L1393.52 385.287C1394.95 384.237 1396.12 383.108 1397.04 381.9C1397.98 380.671 1398.45 379.229 1398.45 377.574C1398.45 375.987 1397.88 374.567 1396.73 373.315C1395.59 372.063 1393.95 371.437 1391.81 371.437C1390.24 371.437 1388.92 371.784 1387.85 372.477C1386.78 373.148 1385.97 374.064 1385.43 375.227C1384.9 376.367 1384.63 377.619 1384.63 378.983C1384.63 380.056 1384.84 381.174 1385.27 382.336C1385.71 383.477 1386.34 384.673 1387.14 385.925C1387.97 387.154 1388.97 388.451 1390.13 389.815L1413.87 417.514H1409.04L1388.82 394.006C1387.17 392.084 1385.71 390.306 1384.46 388.674C1383.23 387.042 1382.28 385.455 1381.61 383.912C1380.94 382.37 1380.6 380.771 1380.6 379.117C1380.6 376.814 1381.06 374.836 1381.98 373.181C1382.9 371.527 1384.19 370.253 1385.87 369.358C1387.55 368.442 1389.52 367.983 1391.81 367.983C1394 367.983 1395.86 368.431 1397.41 369.325C1398.97 370.197 1400.17 371.359 1400.99 372.812C1401.82 374.243 1402.23 375.831 1402.23 377.574C1402.23 379.028 1401.91 380.38 1401.26 381.632C1400.64 382.884 1399.82 384.024 1398.81 385.053C1397.83 386.059 1396.79 386.987 1395.7 387.836L1386.78 394.711C1384.85 396.253 1383.42 397.673 1382.48 398.97C1381.57 400.266 1380.96 401.418 1380.67 402.424C1380.38 403.43 1380.24 404.302 1380.24 405.039C1380.24 406.761 1380.64 408.359 1381.44 409.835C1382.25 411.311 1383.48 412.495 1385.13 413.39C1386.79 414.284 1388.87 414.731 1391.37 414.731C1393.47 414.731 1395.51 414.284 1397.47 413.39C1399.44 412.473 1401.2 411.176 1402.74 409.5C1404.3 407.801 1405.53 405.788 1406.43 403.463C1407.34 401.116 1407.8 398.511 1407.8 395.65H1411.49C1411.49 397.774 1411.28 399.763 1410.85 401.619C1410.45 403.475 1409.85 405.185 1409.04 406.75C1408.24 408.315 1407.24 409.757 1406.06 411.076C1405.88 411.299 1405.76 411.478 1405.69 411.612C1405.64 411.746 1405.53 411.903 1405.35 412.082C1403.56 413.96 1401.46 415.446 1399.05 416.542C1396.63 417.637 1394.07 418.185 1391.37 418.185C1388.26 418.185 1385.57 417.637 1383.29 416.542C1381.03 415.446 1379.29 413.915 1378.06 411.948C1376.85 409.958 1376.25 407.655 1376.25 405.039C1376.25 403.094 1376.66 401.328 1377.49 399.741C1378.31 398.154 1379.44 396.667 1380.87 395.281C1382.3 393.895 1383.9 392.531 1385.67 391.19Z" fill="white"/>
<path d="M1312.21 388.976V417.515H1308.22V381.23H1312.04L1312.21 388.976ZM1311.3 397.125L1309.53 396.119C1309.66 393.973 1310.1 391.961 1310.83 390.083C1311.57 388.205 1312.57 386.551 1313.82 385.12C1315.09 383.689 1316.58 382.571 1318.28 381.766C1320 380.962 1321.9 380.559 1323.98 380.559C1325.79 380.559 1327.41 380.805 1328.84 381.297C1330.27 381.789 1331.49 382.571 1332.5 383.644C1333.5 384.717 1334.26 386.092 1334.78 387.769C1335.31 389.446 1335.58 391.491 1335.58 393.906V417.515H1331.56V393.872C1331.56 391.369 1331.21 389.412 1330.52 388.004C1329.83 386.573 1328.84 385.556 1327.57 384.952C1326.29 384.349 1324.78 384.047 1323.04 384.047C1321.12 384.047 1319.43 384.471 1317.98 385.321C1316.55 386.148 1315.34 387.233 1314.35 388.574C1313.39 389.893 1312.66 391.313 1312.14 392.833C1311.63 394.331 1311.35 395.762 1311.3 397.125Z" fill="white"/>
<path d="M1286.44 381.23H1290.17V416.877C1290.17 420.03 1289.56 422.735 1288.36 424.993C1287.17 427.251 1285.48 428.983 1283.29 430.191C1281.12 431.398 1278.56 432.002 1275.61 432.002C1274.11 432.002 1272.57 431.767 1270.98 431.297C1269.42 430.85 1267.93 430.157 1266.52 429.218C1265.14 428.302 1263.95 427.161 1262.97 425.798L1265.22 423.35C1266.69 425.138 1268.27 426.446 1269.95 427.273C1271.62 428.123 1273.43 428.548 1275.38 428.548C1277.68 428.548 1279.63 428.089 1281.21 427.173C1282.82 426.256 1284.04 424.937 1284.87 423.215C1285.72 421.494 1286.14 419.426 1286.14 417.012V389.211L1286.44 381.23ZM1260.96 399.741V399.037C1260.96 396.22 1261.27 393.682 1261.9 391.424C1262.55 389.144 1263.47 387.199 1264.68 385.589C1265.89 383.957 1267.35 382.716 1269.07 381.867C1270.82 380.995 1272.78 380.559 1274.98 380.559C1277.08 380.559 1278.94 380.906 1280.58 381.599C1282.21 382.292 1283.62 383.287 1284.8 384.583C1285.99 385.88 1286.94 387.423 1287.65 389.211C1288.39 391 1288.93 392.989 1289.26 395.18V404.134C1288.99 406.191 1288.5 408.08 1287.79 409.802C1287.07 411.501 1286.12 412.987 1284.94 414.262C1283.75 415.514 1282.32 416.486 1280.64 417.179C1278.99 417.85 1277.08 418.185 1274.91 418.185C1272.74 418.185 1270.79 417.738 1269.07 416.844C1267.35 415.95 1265.89 414.686 1264.68 413.054C1263.47 411.4 1262.55 409.444 1261.9 407.186C1261.27 404.928 1260.96 402.446 1260.96 399.741ZM1264.98 399.037V399.741C1264.98 401.865 1265.19 403.832 1265.62 405.643C1266.04 407.454 1266.69 409.03 1267.56 410.372C1268.44 411.713 1269.54 412.764 1270.88 413.524C1272.23 414.284 1273.8 414.664 1275.61 414.664C1277.92 414.664 1279.85 414.228 1281.41 413.356C1282.98 412.462 1284.22 411.288 1285.14 409.835C1286.05 408.36 1286.72 406.75 1287.15 405.006V394.577C1286.9 393.392 1286.52 392.185 1286.01 390.955C1285.52 389.725 1284.82 388.596 1283.93 387.568C1283.06 386.517 1281.94 385.679 1280.58 385.053C1279.23 384.404 1277.6 384.08 1275.68 384.08C1273.85 384.08 1272.25 384.46 1270.88 385.22C1269.54 385.981 1268.44 387.042 1267.56 388.406C1266.69 389.748 1266.04 391.324 1265.62 393.135C1265.19 394.946 1264.98 396.913 1264.98 399.037Z" fill="white"/>
<path d="M1244.05 381.229V417.514H1240.06V381.229H1244.05ZM1239.35 370.732C1239.35 369.972 1239.59 369.335 1240.06 368.821C1240.55 368.284 1241.22 368.016 1242.07 368.016C1242.92 368.016 1243.59 368.284 1244.08 368.821C1244.59 369.335 1244.85 369.972 1244.85 370.732C1244.85 371.47 1244.59 372.107 1244.08 372.644C1243.59 373.158 1242.92 373.415 1242.07 373.415C1241.22 373.415 1240.55 373.158 1240.06 372.644C1239.59 372.107 1239.35 371.47 1239.35 370.732Z" fill="white"/>
<path d="M1218.95 408.259C1218.95 407.275 1218.71 406.303 1218.22 405.341C1217.72 404.38 1216.77 403.497 1215.37 402.692C1213.98 401.887 1211.93 401.205 1209.23 400.646C1207.22 400.199 1205.42 399.696 1203.83 399.137C1202.27 398.579 1200.95 397.908 1199.87 397.125C1198.8 396.343 1197.98 395.404 1197.43 394.308C1196.87 393.213 1196.59 391.916 1196.59 390.418C1196.59 389.077 1196.88 387.814 1197.46 386.629C1198.06 385.422 1198.91 384.371 1200.01 383.477C1201.13 382.56 1202.47 381.845 1204.03 381.33C1205.62 380.816 1207.4 380.559 1209.36 380.559C1212.16 380.559 1214.55 381.04 1216.54 382.001C1218.55 382.94 1220.08 384.226 1221.13 385.858C1222.21 387.49 1222.74 389.334 1222.74 391.391H1218.75C1218.75 390.139 1218.38 388.954 1217.65 387.836C1216.93 386.718 1215.87 385.802 1214.46 385.086C1213.07 384.371 1211.38 384.013 1209.36 384.013C1207.28 384.013 1205.6 384.326 1204.3 384.952C1203 385.578 1202.05 386.372 1201.45 387.333C1200.87 388.294 1200.58 389.289 1200.58 390.318C1200.58 391.123 1200.7 391.86 1200.95 392.531C1201.21 393.179 1201.68 393.783 1202.35 394.342C1203.05 394.901 1204.03 395.426 1205.31 395.918C1206.58 396.41 1208.23 396.891 1210.27 397.36C1213.2 398.008 1215.59 398.802 1217.45 399.741C1219.32 400.658 1220.71 401.798 1221.6 403.162C1222.5 404.503 1222.95 406.135 1222.95 408.058C1222.95 409.556 1222.63 410.931 1222.01 412.182C1221.38 413.412 1220.47 414.474 1219.29 415.368C1218.13 416.263 1216.72 416.956 1215.06 417.447C1213.43 417.939 1211.6 418.185 1209.56 418.185C1206.5 418.185 1203.91 417.682 1201.78 416.676C1199.68 415.648 1198.08 414.306 1196.99 412.652C1195.92 410.975 1195.38 409.198 1195.38 407.32H1199.37C1199.5 409.198 1200.1 410.685 1201.15 411.78C1202.2 412.853 1203.48 413.613 1205 414.06C1206.55 414.508 1208.07 414.731 1209.56 414.731C1211.62 414.731 1213.34 414.429 1214.73 413.826C1216.12 413.222 1217.17 412.428 1217.88 411.445C1218.6 410.461 1218.95 409.399 1218.95 408.259Z" fill="white"/>
<path d="M1168.14 418.185C1165.77 418.185 1163.59 417.749 1161.6 416.877C1159.63 416.005 1157.91 414.776 1156.44 413.189C1154.98 411.601 1153.85 409.723 1153.05 407.555C1152.27 405.364 1151.87 402.972 1151.87 400.378V398.936C1151.87 396.142 1152.29 393.615 1153.12 391.357C1153.94 389.099 1155.08 387.165 1156.54 385.556C1157.99 383.946 1159.64 382.716 1161.5 381.867C1163.38 380.995 1165.34 380.559 1167.4 380.559C1169.7 380.559 1171.75 380.973 1173.54 381.8C1175.33 382.605 1176.82 383.756 1178.03 385.254C1179.26 386.73 1180.19 388.484 1180.82 390.519C1181.44 392.531 1181.75 394.756 1181.75 397.192V399.64H1154.29V396.22H1177.76V395.75C1177.72 393.716 1177.31 391.816 1176.52 390.049C1175.76 388.261 1174.62 386.808 1173.1 385.69C1171.58 384.572 1169.68 384.013 1167.4 384.013C1165.7 384.013 1164.14 384.371 1162.71 385.086C1161.3 385.802 1160.08 386.83 1159.05 388.172C1158.04 389.491 1157.26 391.067 1156.7 392.9C1156.17 394.711 1155.9 396.723 1155.9 398.936V400.378C1155.9 402.39 1156.19 404.268 1156.77 406.012C1157.37 407.734 1158.22 409.254 1159.32 410.573C1160.44 411.892 1161.76 412.92 1163.28 413.658C1164.8 414.396 1166.47 414.765 1168.31 414.765C1170.45 414.765 1172.35 414.373 1174.01 413.591C1175.66 412.786 1177.15 411.523 1178.47 409.802L1180.98 411.747C1180.2 412.909 1179.22 413.982 1178.03 414.966C1176.87 415.95 1175.47 416.732 1173.84 417.313C1172.21 417.895 1170.31 418.185 1168.14 418.185Z" fill="white"/>
<path d="M1115.85 417.514H1104.78L1104.85 413.993H1115.85C1119.36 413.993 1122.38 413.21 1124.9 411.645C1127.45 410.058 1129.42 407.867 1130.8 405.072C1132.19 402.278 1132.88 399.036 1132.88 395.347V390.787C1132.88 387.97 1132.48 385.421 1131.68 383.141C1130.89 380.86 1129.77 378.915 1128.29 377.305C1126.81 375.673 1125.05 374.421 1122.99 373.55C1120.96 372.678 1118.68 372.242 1116.15 372.242H1104.58V368.687H1116.15C1119.19 368.687 1121.97 369.212 1124.5 370.263C1127.05 371.292 1129.25 372.789 1131.11 374.757C1132.98 376.702 1134.43 379.038 1135.43 381.766C1136.46 384.493 1136.98 387.534 1136.98 390.887V395.347C1136.98 398.701 1136.46 401.741 1135.43 404.469C1134.43 407.196 1132.98 409.533 1131.11 411.478C1129.23 413.423 1127 414.92 1124.43 415.971C1121.86 417 1119 417.514 1115.85 417.514ZM1106.63 368.687V417.514H1102.5V368.687H1106.63Z" fill="white"/>
<path d="M1048.16 418.185C1045.79 418.185 1043.61 417.749 1041.62 416.877C1039.65 416.005 1037.93 414.776 1036.45 413.189C1035 411.601 1033.87 409.723 1033.06 407.555C1032.28 405.364 1031.89 402.972 1031.89 400.378V398.936C1031.89 396.142 1032.3 393.615 1033.13 391.357C1033.96 389.099 1035.1 387.165 1036.55 385.556C1038.01 383.946 1039.66 382.716 1041.52 381.867C1043.39 380.995 1045.36 380.559 1047.42 380.559C1049.72 380.559 1051.77 380.973 1053.55 381.8C1055.34 382.605 1056.84 383.756 1058.05 385.254C1059.28 386.73 1060.21 388.484 1060.83 390.519C1061.46 392.531 1061.77 394.756 1061.77 397.192V399.64H1034.31V396.22H1057.78V395.75C1057.74 393.716 1057.32 391.816 1056.54 390.049C1055.78 388.261 1054.64 386.808 1053.12 385.69C1051.6 384.572 1049.7 384.013 1047.42 384.013C1045.72 384.013 1044.15 384.371 1042.72 385.086C1041.31 385.802 1040.1 386.83 1039.07 388.172C1038.06 389.491 1037.28 391.067 1036.72 392.9C1036.18 394.711 1035.92 396.723 1035.92 398.936V400.378C1035.92 402.39 1036.21 404.268 1036.79 406.012C1037.39 407.734 1038.24 409.254 1039.34 410.573C1040.45 411.892 1041.77 412.92 1043.29 413.658C1044.81 414.396 1046.49 414.765 1048.32 414.765C1050.47 414.765 1052.37 414.373 1054.02 413.591C1055.68 412.786 1057.17 411.523 1058.48 409.802L1061 411.747C1060.22 412.909 1059.23 413.982 1058.05 414.966C1056.89 415.95 1055.49 416.732 1053.86 417.313C1052.22 417.895 1050.32 418.185 1048.16 418.185Z" fill="white"/>
<path d="M1012.06 409.13V381.229H1016.09V417.513H1012.23L1012.06 409.13ZM1012.8 402.423L1014.88 402.356C1014.88 404.636 1014.61 406.737 1014.08 408.66C1013.54 410.583 1012.7 412.259 1011.56 413.69C1010.42 415.121 1008.94 416.228 1007.13 417.01C1005.32 417.793 1003.14 418.184 1000.59 418.184C998.828 418.184 997.207 417.938 995.732 417.446C994.279 416.932 993.027 416.127 991.976 415.032C990.925 413.936 990.109 412.517 989.528 410.773C988.969 409.029 988.689 406.916 988.689 404.435V381.229H992.68V404.502C992.68 406.447 992.892 408.068 993.317 409.364C993.764 410.661 994.368 411.701 995.128 412.483C995.911 413.266 996.805 413.824 997.811 414.16C998.817 414.495 999.901 414.663 1001.06 414.663C1004.01 414.663 1006.34 414.093 1008.04 412.953C1009.76 411.812 1010.98 410.314 1011.69 408.459C1012.43 406.581 1012.8 404.569 1012.8 402.423Z" fill="white"/>
<path d="M966.548 431.465V388.205L966.816 381.23H970.538V431.465H966.548ZM941.363 399.741V399.037C941.363 396.22 941.676 393.682 942.302 391.424C942.928 389.144 943.844 387.199 945.052 385.589C946.281 383.957 947.757 382.716 949.478 381.867C951.222 380.995 953.201 380.559 955.414 380.559C957.538 380.559 959.427 380.906 961.081 381.599C962.736 382.292 964.155 383.287 965.34 384.583C966.548 385.88 967.52 387.423 968.258 389.211C968.996 391 969.532 392.989 969.867 395.18V404.134C969.599 406.191 969.096 408.08 968.358 409.802C967.643 411.501 966.682 412.987 965.474 414.262C964.267 415.514 962.814 416.486 961.115 417.179C959.438 417.85 957.515 418.185 955.347 418.185C953.156 418.185 951.189 417.738 949.445 416.844C947.723 415.95 946.259 414.686 945.052 413.054C943.867 411.4 942.95 409.444 942.302 407.186C941.676 404.928 941.363 402.446 941.363 399.741ZM945.387 399.037V399.741C945.387 401.865 945.599 403.832 946.024 405.643C946.471 407.454 947.131 409.041 948.003 410.405C948.875 411.769 949.981 412.831 951.323 413.591C952.686 414.351 954.274 414.731 956.085 414.731C958.387 414.731 960.332 414.284 961.92 413.39C963.507 412.495 964.77 411.311 965.709 409.835C966.67 408.36 967.364 406.75 967.788 405.006V394.577C967.565 393.436 967.185 392.252 966.648 391.022C966.112 389.792 965.385 388.652 964.468 387.601C963.574 386.528 962.445 385.668 961.081 385.019C959.718 384.349 958.074 384.013 956.152 384.013C954.318 384.013 952.72 384.404 951.356 385.187C950.015 385.947 948.897 387.009 948.003 388.373C947.131 389.736 946.471 391.324 946.024 393.135C945.599 394.946 945.387 396.913 945.387 399.037Z" fill="white"/>
<path d="M924.452 381.229V417.514H920.461V381.229H924.452ZM919.757 370.732C919.757 369.972 919.992 369.335 920.461 368.821C920.953 368.284 921.624 368.016 922.473 368.016C923.323 368.016 923.993 368.284 924.485 368.821C924.999 369.335 925.257 369.972 925.257 370.732C925.257 371.47 924.999 372.107 924.485 372.644C923.993 373.158 923.323 373.415 922.473 373.415C921.624 373.415 920.953 373.158 920.461 372.644C919.992 372.107 919.757 371.47 919.757 370.732Z" fill="white"/>
<path d="M878.666 388.976V417.515H874.676V381.23H878.499L878.666 388.976ZM877.761 397.125L875.984 396.119C876.118 393.973 876.554 391.961 877.292 390.083C878.029 388.205 879.024 386.551 880.276 385.12C881.55 383.689 883.037 382.571 884.736 381.766C886.458 380.962 888.358 380.559 890.437 380.559C892.248 380.559 893.869 380.805 895.3 381.297C896.731 381.789 897.949 382.571 898.955 383.644C899.961 384.717 900.721 386.092 901.235 387.769C901.772 389.446 902.04 391.491 902.04 393.906V417.515H898.016V393.872C898.016 391.369 897.67 389.412 896.977 388.004C896.283 386.573 895.3 385.556 894.025 384.952C892.751 384.349 891.242 384.047 889.498 384.047C887.576 384.047 885.888 384.471 884.434 385.321C883.004 386.148 881.796 387.233 880.813 388.574C879.851 389.893 879.114 391.313 878.599 392.833C878.085 394.331 877.806 395.762 877.761 397.125Z" fill="white"/>
<path d="M852.333 368.687H856.457V401.752C856.457 405.419 855.686 408.471 854.144 410.907C852.601 413.344 850.522 415.166 847.906 416.374C845.313 417.581 842.44 418.185 839.288 418.185C836.046 418.185 833.128 417.581 830.535 416.374C827.942 415.166 825.885 413.344 824.365 410.907C822.867 408.471 822.118 405.419 822.118 401.752V368.687H826.209V401.752C826.209 404.592 826.768 406.973 827.886 408.895C829.004 410.818 830.546 412.26 832.514 413.221C834.481 414.183 836.739 414.663 839.288 414.663C841.814 414.663 844.061 414.183 846.028 413.221C847.995 412.26 849.538 410.818 850.656 408.895C851.774 406.973 852.333 404.592 852.333 401.752V368.687Z" fill="white"/>
<path d="M776.96 408.257C776.96 407.273 776.714 406.301 776.222 405.339C775.73 404.378 774.78 403.495 773.372 402.69C771.985 401.885 769.94 401.203 767.235 400.645C765.223 400.197 763.423 399.694 761.836 399.135C760.271 398.577 758.952 397.906 757.878 397.123C756.805 396.341 755.989 395.402 755.43 394.306C754.871 393.211 754.592 391.914 754.592 390.416C754.592 389.075 754.883 387.812 755.464 386.627C756.068 385.42 756.917 384.369 758.013 383.475C759.13 382.558 760.472 381.843 762.037 381.328C763.624 380.814 765.401 380.557 767.369 380.557C770.163 380.557 772.556 381.038 774.545 381.999C776.557 382.938 778.089 384.224 779.14 385.856C780.213 387.488 780.749 389.332 780.749 391.389H776.759C776.759 390.137 776.39 388.952 775.652 387.834C774.937 386.716 773.875 385.8 772.466 385.084C771.08 384.369 769.381 384.011 767.369 384.011C765.29 384.011 763.602 384.324 762.305 384.95C761.008 385.576 760.058 386.37 759.455 387.331C758.873 388.293 758.583 389.287 758.583 390.316C758.583 391.121 758.706 391.858 758.952 392.529C759.22 393.177 759.689 393.781 760.36 394.34C761.053 394.899 762.037 395.424 763.311 395.916C764.585 396.408 766.24 396.889 768.274 397.358C771.203 398.006 773.595 398.8 775.451 399.739C777.329 400.656 778.715 401.796 779.609 403.16C780.503 404.501 780.95 406.133 780.95 408.056C780.95 409.554 780.637 410.929 780.011 412.181C779.385 413.41 778.48 414.472 777.295 415.366C776.133 416.261 774.724 416.954 773.07 417.446C771.438 417.937 769.604 418.183 767.57 418.183C764.507 418.183 761.914 417.68 759.79 416.674C757.688 415.646 756.09 414.304 754.994 412.65C753.921 410.973 753.385 409.196 753.385 407.318H757.375C757.51 409.196 758.102 410.683 759.153 411.778C760.204 412.851 761.489 413.611 763.009 414.059C764.552 414.506 766.072 414.729 767.57 414.729C769.627 414.729 771.348 414.427 772.734 413.824C774.121 413.22 775.171 412.426 775.887 411.443C776.602 410.459 776.96 409.397 776.96 408.257Z" fill="white"/>
<path d="M743.079 366.004V369.861C743.079 371.225 742.889 372.566 742.509 373.885C742.129 375.204 741.581 376.445 740.866 377.607C740.173 378.748 739.346 379.765 738.384 380.659L736.003 378.915C737.032 377.507 737.803 376.11 738.317 374.723C738.832 373.315 739.089 371.728 739.089 369.962V366.004H743.079Z" fill="white"/>
<path d="M717.014 410.472V366.004H721.038V417.514H717.283L717.014 410.472ZM691.83 399.741V399.036C691.83 396.219 692.154 393.682 692.802 391.424C693.45 389.143 694.378 387.198 695.585 385.589C696.815 383.957 698.291 382.716 700.012 381.866C701.734 380.994 703.679 380.559 705.847 380.559C707.971 380.559 709.849 380.905 711.481 381.598C713.113 382.291 714.51 383.286 715.673 384.583C716.858 385.879 717.808 387.422 718.523 389.211C719.261 390.999 719.798 392.989 720.133 395.18V404.134C719.865 406.19 719.373 408.08 718.658 409.801C717.942 411.5 716.992 412.987 715.807 414.261C714.622 415.513 713.191 416.486 711.515 417.179C709.86 417.849 707.949 418.185 705.78 418.185C703.634 418.185 701.7 417.738 699.979 416.843C698.257 415.949 696.793 414.686 695.585 413.054C694.378 411.399 693.45 409.443 692.802 407.185C692.154 404.927 691.83 402.446 691.83 399.741ZM695.854 399.036V399.741C695.854 401.864 696.066 403.832 696.491 405.643C696.916 407.454 697.564 409.03 698.436 410.371C699.308 411.712 700.415 412.763 701.756 413.523C703.097 414.283 704.685 414.664 706.518 414.664C708.821 414.664 710.754 414.228 712.319 413.356C713.884 412.461 715.136 411.288 716.075 409.835C717.014 408.359 717.696 406.749 718.121 405.005V394.576C717.853 393.391 717.461 392.184 716.947 390.954C716.433 389.725 715.729 388.596 714.835 387.567C713.963 386.517 712.845 385.678 711.481 385.052C710.14 384.404 708.508 384.08 706.585 384.08C704.729 384.08 703.131 384.46 701.789 385.22C700.448 385.98 699.33 387.042 698.436 388.406C697.564 389.747 696.916 391.323 696.491 393.134C696.066 394.945 695.854 396.912 695.854 399.036Z" fill="white"/>
<path d="M671.128 411.007V392.294C671.128 390.573 670.771 389.086 670.055 387.834C669.34 386.582 668.289 385.621 666.903 384.95C665.517 384.28 663.807 383.944 661.772 383.944C659.894 383.944 658.217 384.28 656.742 384.95C655.289 385.599 654.137 386.482 653.288 387.599C652.461 388.695 652.047 389.913 652.047 391.255L648.023 391.221C648.023 389.857 648.358 388.538 649.029 387.264C649.7 385.99 650.65 384.85 651.879 383.844C653.109 382.838 654.573 382.044 656.272 381.463C657.994 380.859 659.883 380.557 661.94 380.557C664.533 380.557 666.814 380.993 668.781 381.865C670.771 382.737 672.324 384.045 673.442 385.789C674.56 387.532 675.119 389.723 675.119 392.361V409.9C675.119 411.152 675.208 412.449 675.387 413.79C675.588 415.132 675.868 416.238 676.226 417.11V417.513H671.967C671.698 416.708 671.486 415.702 671.33 414.494C671.195 413.265 671.128 412.102 671.128 411.007ZM672.067 396.386L672.134 399.471H664.254C662.197 399.471 660.352 399.661 658.72 400.041C657.111 400.399 655.747 400.935 654.629 401.651C653.511 402.344 652.651 403.182 652.047 404.166C651.466 405.149 651.175 406.267 651.175 407.519C651.175 408.816 651.499 410.001 652.148 411.074C652.818 412.147 653.757 413.008 654.965 413.656C656.194 414.282 657.647 414.595 659.324 414.595C661.56 414.595 663.527 414.181 665.226 413.354C666.948 412.527 668.367 411.443 669.485 410.101C670.603 408.76 671.352 407.296 671.732 405.708L673.476 408.022C673.185 409.14 672.649 410.291 671.866 411.476C671.106 412.639 670.111 413.734 668.882 414.763C667.652 415.769 666.199 416.596 664.522 417.244C662.868 417.87 660.99 418.183 658.888 418.183C656.518 418.183 654.45 417.736 652.684 416.842C650.94 415.948 649.577 414.729 648.593 413.187C647.632 411.622 647.151 409.855 647.151 407.888C647.151 406.1 647.531 404.501 648.291 403.093C649.051 401.662 650.147 400.455 651.577 399.471C653.031 398.465 654.774 397.705 656.809 397.19C658.866 396.654 661.168 396.386 663.717 396.386H672.067Z" fill="white"/>
<path d="M628.429 408.257C628.429 407.273 628.183 406.301 627.691 405.339C627.199 404.378 626.249 403.495 624.841 402.69C623.455 401.885 621.409 401.203 618.704 400.645C616.692 400.197 614.892 399.694 613.305 399.135C611.74 398.577 610.421 397.906 609.348 397.123C608.275 396.341 607.459 395.402 606.9 394.306C606.341 393.211 606.061 391.914 606.061 390.416C606.061 389.075 606.352 387.812 606.933 386.627C607.537 385.42 608.386 384.369 609.482 383.475C610.6 382.558 611.941 381.843 613.506 381.328C615.093 380.814 616.871 380.557 618.838 380.557C621.633 380.557 624.025 381.038 626.015 381.999C628.027 382.938 629.558 384.224 630.609 385.856C631.682 387.488 632.218 389.332 632.218 391.389H628.228C628.228 390.137 627.859 388.952 627.121 387.834C626.406 386.716 625.344 385.8 623.935 385.084C622.549 384.369 620.85 384.011 618.838 384.011C616.759 384.011 615.071 384.324 613.774 384.95C612.478 385.576 611.527 386.37 610.924 387.331C610.343 388.293 610.052 389.287 610.052 390.316C610.052 391.121 610.175 391.858 610.421 392.529C610.689 393.177 611.159 393.781 611.829 394.34C612.522 394.899 613.506 395.424 614.78 395.916C616.055 396.408 617.709 396.889 619.744 397.358C622.672 398.006 625.064 398.8 626.92 399.739C628.798 400.656 630.184 401.796 631.078 403.16C631.973 404.501 632.42 406.133 632.42 408.056C632.42 409.554 632.107 410.929 631.481 412.181C630.855 413.41 629.949 414.472 628.764 415.366C627.602 416.261 626.193 416.954 624.539 417.446C622.907 417.937 621.074 418.183 619.039 418.183C615.976 418.183 613.383 417.68 611.259 416.674C609.158 415.646 607.559 414.304 606.464 412.65C605.391 410.973 604.854 409.196 604.854 407.318H608.845C608.979 409.196 609.571 410.683 610.622 411.778C611.673 412.851 612.958 413.611 614.479 414.059C616.021 414.506 617.541 414.729 619.039 414.729C621.096 414.729 622.818 414.427 624.204 413.824C625.59 413.22 626.641 412.426 627.356 411.443C628.071 410.459 628.429 409.397 628.429 408.257Z" fill="white"/>
<path d="M573.189 371.605L556.288 417.514H551.995L570.439 368.687H573.424L573.189 371.605ZM588.548 417.514L571.613 371.605L571.378 368.687H574.363L592.841 417.514H588.548ZM585.53 400.277V403.832H559.608V400.277H585.53Z" fill="white"/>
</svg>
