<svg width="1031" height="1031" viewBox="0 0 1031 1031" fill="none" xmlns="http://www.w3.org/2000/svg">
<path fill-rule="evenodd" clip-rule="evenodd" d="M23.298 1007.7C-7.40768 976.996 -7.8144 927.619 22.3895 897.415L897.415 22.3899C927.619 -7.81408 976.996 -7.40723 1007.7 23.2984C1038.41 54.0041 1038.81 103.381 1008.61 133.585L133.585 1008.61C103.381 1038.81 54.0037 1038.41 23.298 1007.7Z" fill="#1A73E8"/>
<path fill-rule="evenodd" clip-rule="evenodd" d="M23.2985 23.298C54.0042 -7.40768 103.381 -7.8144 133.585 22.3895L1008.61 897.415C1038.81 927.619 1038.41 976.996 1007.7 1007.7C976.996 1038.41 927.619 1038.81 897.415 1008.61L22.3901 133.585C-7.81386 103.381 -7.40713 54.0037 23.2985 23.298Z" fill="#1A73E8"/>
</svg>
