<svg width="1225" height="1031" viewBox="0 0 1225 1031" fill="none" xmlns="http://www.w3.org/2000/svg">
<path fill-rule="evenodd" clip-rule="evenodd" d="M0 68C0 30.4446 29.9472 0 66.8889 0H1137.11C1174.05 0 1204 30.4446 1204 68C1204 105.555 1174.05 136 1137.11 136H66.8889C29.9472 136 0 105.555 0 68Z" fill="#1A73E8"/>
<path fill-rule="evenodd" clip-rule="evenodd" d="M0 515.5C0 479.325 29.9472 450 66.8889 450H1137.11C1174.05 450 1204 479.325 1204 515.5C1204 551.675 1174.05 581 1137.11 581H66.8889C29.9472 581 0 551.675 0 515.5Z" fill="#1A73E8"/>
<path fill-rule="evenodd" clip-rule="evenodd" d="M21 963C21 925.445 50.9472 895 87.8889 895H1158.11C1195.05 895 1225 925.445 1225 963C1225 1000.56 1195.05 1031 1158.11 1031H87.8889C50.9472 1031 21 1000.56 21 963Z" fill="#1A73E8"/>
</svg>
